<svg width="584" height="584" viewBox="0 0 584 584" fill="none" xmlns="http://www.w3.org/2000/svg">
<rect width="584" height="584" rx="292" fill="black"/>
<path d="M78.3359 165.659L419.34 506.663L507 419.004L165.995 77.9999L78.3359 165.659Z" fill="white"/>
<path d="M165.996 506.665L507 165.66L419.341 78.001L78.3368 419.005L165.996 506.665Z" fill="white"/>
<rect x="121" y="121" width="342" height="342" rx="171" fill="black"/>
<path fill-rule="evenodd" clip-rule="evenodd" d="M306.188 255.665L349.548 230.372V280.958L306.188 255.665ZM349.548 364.064L291.735 397.788L233.922 364.064V305.047L291.735 338.771L349.548 305.047V364.064ZM233.922 230.372L277.282 255.665L233.922 280.958V230.372ZM298.962 267.709L342.321 293.002L298.962 318.295V267.709ZM284.508 318.295L241.149 293.002L284.508 267.709V318.295ZM342.321 218.327L291.735 247.234L241.149 218.327L291.735 188.216L342.321 218.327ZM219.469 213.509V371.291L291.735 412.241L364.001 371.291V213.509L291.735 172.559L219.469 213.509Z" fill="#13B5EC"/>
</svg>
