<svg xmlns="http://www.w3.org/2000/svg" viewBox="0 0 500 500"><defs><style>.cls-1{fill:#f6bc16;}.cls-2,.cls-3,.cls-4,.cls-5{isolation:isolate;}.cls-3,.cls-4,.cls-5{font-size:78.74px;fill:#fff;font-family:Satoshi-Bold, Satoshi;font-weight:700;}.cls-4{letter-spacing:-0.02em;}.cls-5{letter-spacing:0.02em;}</style></defs><title>GranaryLGE-logotype-yellow</title><g id="Layer_3" data-name="Layer 3"><path class="cls-1" d="M83.32,196.68c-3.9,3.59-18.4,18.69.18,30.46a1.36,1.36,0,0,0,1.45,0c18.58-11.76,4.08-26.87.17-30.46A1.33,1.33,0,0,0,83.32,196.68Z"/><path class="cls-1" d="M82.88,238c.12-2.78-.55-15.2-22.32-17a3.08,3.08,0,0,0-3.31,2.82,3.49,3.49,0,0,0,0,.56c.51,5,3.67,13.92,18.93,19.68a3.09,3.09,0,0,0,3.32-.74,16.92,16.92,0,0,0,3.11-4.19A3,3,0,0,0,82.88,238Z"/><path class="cls-1" d="M84,258c.12-2.78-.56-15.2-22.32-17a3.07,3.07,0,0,0-3.31,2.81,2.62,2.62,0,0,0,0,.56c.51,4.95,3.67,13.93,18.92,19.68a3.08,3.08,0,0,0,3.32-.74,16.53,16.53,0,0,0,3.12-4.19A2.92,2.92,0,0,0,84,258Z"/><path class="cls-1" d="M84,277.93c.12-2.78-.56-15.2-22.32-17a3.07,3.07,0,0,0-3.31,2.81,2.62,2.62,0,0,0,0,.56c.51,5,3.67,13.93,18.92,19.68a3.08,3.08,0,0,0,3.32-.74A16.53,16.53,0,0,0,83.75,279,2.92,2.92,0,0,0,84,277.93Z"/><path class="cls-1" d="M85.52,238c-.13-2.78.55-15.2,22.31-17a3.08,3.08,0,0,1,3.31,2.82,2.62,2.62,0,0,1,0,.56c-.51,5-3.66,13.92-18.92,19.68a3.08,3.08,0,0,1-3.32-.74,16.71,16.71,0,0,1-3.12-4.19A2.81,2.81,0,0,1,85.52,238Z"/><path class="cls-1" d="M85.52,258c-.13-2.78.55-15.2,22.31-17a3.06,3.06,0,0,1,3.31,2.81,2.62,2.62,0,0,1,0,.56c-.51,4.95-3.66,13.93-18.92,19.68a3.08,3.08,0,0,1-3.32-.74,16.53,16.53,0,0,1-3.12-4.19A2.73,2.73,0,0,1,85.52,258Z"/><path class="cls-1" d="M86.65,277.93c-.12-2.78.56-15.2,22.32-17a3.06,3.06,0,0,1,3.31,2.81,2.62,2.62,0,0,1,0,.56c-.51,5-3.67,13.93-18.92,19.68a3.08,3.08,0,0,1-3.32-.74A16.53,16.53,0,0,1,86.92,279,2.92,2.92,0,0,1,86.65,277.93Z"/><path class="cls-1" d="M78.06,302.6a1.61,1.61,0,0,1-.83-3c7.69-4.64,6.5-14.85,6.48-14.95a1.6,1.6,0,0,1,3.18-.4c.07.5,1.45,12.39-8,18.1A1.63,1.63,0,0,1,78.06,302.6Z"/><path class="cls-1" d="M84.22,178.08a70,70,0,1,0,70,70A70.06,70.06,0,0,0,84.22,178.08Zm0,129.89A59.93,59.93,0,1,1,144.15,248,60,60,0,0,1,84.22,308Z"/><g class="cls-2"><text class="cls-3" transform="translate(175.74 278.86)">G</text><text class="cls-4" transform="translate(238.82 278.86)">r</text><text class="cls-3" transform="translate(270.47 278.86)">ana</text><text class="cls-5" transform="translate(407.01 278.86)">r</text><text class="cls-3" transform="translate(441.42 278.86)">y</text></g></g></svg>