<svg xmlns:xlink="http://www.w3.org/1999/xlink" width="416" xmlns="http://www.w3.org/2000/svg" height="110" id="screenshot-ccab5ec6-1591-802f-8002-e5a907c805ab" viewBox="0 0 416 110" style="-webkit-print-color-adjust: exact;" fill="none" version="1.1"><g id="shape-ccab5ec6-1591-802f-8002-e5a907c805ab" width="auto" height="32" rx="0" ry="0" style="fill: rgb(0, 0, 0);"><g id="shape-ccab5ec6-1591-802f-8002-e5a907ce9da8"><g class="fills" id="fills-ccab5ec6-1591-802f-8002-e5a907ce9da8"><path fill-rule="evenodd" clip-rule="evenodd" rx="0" ry="0" d="M110.034,55.000C110.034,85.376,85.359,110.000,54.921,110.000C26.043,110.000,2.353,87.835,0.000,59.623L72.847,59.623L72.847,50.377L0.000,50.377C2.353,22.165,26.043,0.000,54.921,0.000C85.359,0.000,110.034,24.624,110.034,55.000ZZM314.358,100.036C333.455,100.036,345.980,89.746,345.980,74.250C345.980,59.870,336.555,53.052,322.295,50.696L309.646,48.589C299.974,46.977,293.525,42.762,293.525,33.465C293.525,24.043,300.718,16.853,314.358,16.853C327.627,16.853,334.447,23.547,335.191,33.093L344.740,33.093C343.996,20.448,334.323,9.167,314.482,9.167C294.889,9.167,284.101,20.200,284.101,33.836C284.101,48.341,293.897,55.035,307.290,57.266L320.063,59.250C330.727,61.110,336.679,65.448,336.679,74.622C336.679,85.407,327.875,92.350,314.482,92.350C300.594,92.350,291.913,85.655,291.169,74.250L281.745,74.250C282.489,89.126,293.897,100.036,314.358,100.036ZZM173.574,98.300L138.852,98.300L138.852,11.026L172.334,11.026C187.091,11.026,197.383,19.704,197.383,33.589C197.383,43.630,191.679,50.324,182.503,52.556L182.503,52.928C193.415,55.035,200.111,62.473,200.111,74.126C200.111,89.126,189.075,98.300,173.574,98.300ZZM171.094,49.333C181.635,49.333,188.083,43.630,188.083,34.704L188.083,33.465C188.083,24.539,181.635,18.960,171.094,18.960L148.153,18.960L148.153,49.333L171.094,49.333ZZM172.210,90.366C183.743,90.366,190.811,84.044,190.811,74.374L190.811,73.135C190.811,63.093,183.619,57.019,172.086,57.019L148.153,57.019L148.153,90.366L172.210,90.366ZZM275.216,98.300L265.295,98.300L257.855,74.622L223.133,74.622L215.693,98.300L206.268,98.300L234.914,11.026L246.198,11.026L275.216,98.300ZZM240.990,20.572L240.246,20.572L225.613,66.812L255.499,66.812L240.990,20.572ZZM359.949,98.300L359.949,11.026L416.000,11.026L416.000,19.084L369.250,19.084L369.250,49.085L412.280,49.085L412.280,57.019L369.250,57.019L369.250,90.242L416.000,90.242L416.000,98.300L359.949,98.300ZZ" style="fill: rgb(0, 232, 202); fill-opacity: 1;"/></g></g></g></svg>