<svg xmlns:xlink="http://www.w3.org/1999/xlink" width="138" xmlns="http://www.w3.org/2000/svg" height="40" id="screenshot-50cacb97-4075-8010-8002-e0f90dbdc594" viewBox="0 0 138 40" style="-webkit-print-color-adjust: exact;" fill="none" version="1.1"><g id="shape-50cacb97-4075-8010-8002-e0f90dbdc594" width="138" height="40" rx="0" ry="0" style="fill: rgb(0, 0, 0);"><g id="shape-50cacb97-4075-8010-8002-e0f90dc1033c"><g class="fills" id="fills-50cacb97-4075-8010-8002-e0f90dc1033c"><path rx="0" ry="0" d="M50.965,14.240L46.124,14.240L46.124,25.762L48.621,25.762L48.621,16.737L49.339,16.737L53.326,25.762L56.055,25.762L50.965,14.240ZZ" style="fill: rgb(2, 232, 202); fill-opacity: 1;"/></g></g><g id="shape-50cacb97-4075-8010-8002-e0f90dc1b831"><g class="fills" id="fills-50cacb97-4075-8010-8002-e0f90dc1b831"><path rx="0" ry="0" d="M94.540,25.762L97.037,25.762L97.037,14.240L94.540,14.240L94.540,25.762ZZ" style="fill: rgb(2, 232, 202); fill-opacity: 1;"/></g></g><g id="shape-50cacb97-4075-8010-8002-e0f90dc24e15"><g class="fills" id="fills-50cacb97-4075-8010-8002-e0f90dc24e15"><path rx="0" ry="0" d="M61.145,14.240L56.055,25.762L58.784,25.762L62.772,16.737L63.490,16.737L63.490,25.762L65.986,25.762L65.986,14.240L61.145,14.240ZZ" style="fill: rgb(2, 232, 202); fill-opacity: 1;"/></g></g><g id="shape-50cacb97-4075-8010-8002-e0f90dc2f891"><g class="fills" id="fills-50cacb97-4075-8010-8002-e0f90dc2f891"><path rx="0" ry="0" d="M77.151,14.240L72.584,14.240L67.493,25.762L70.223,25.762L71.881,22.007L77.853,22.007L79.512,25.762L82.241,25.762L77.151,14.240ZZM72.984,19.511L74.210,16.737L75.524,16.737L76.750,19.511L72.984,19.511ZZ" style="fill: rgb(2, 232, 202); fill-opacity: 1;"/></g></g><g id="shape-50cacb97-4075-8010-8002-e0f90dc37a52"><g class="fills" id="fills-50cacb97-4075-8010-8002-e0f90dc37a52"><path rx="0" ry="0" d="M89.450,14.240L83.685,14.240L83.685,25.762L86.181,25.762L86.181,16.737L87.824,16.737L91.811,25.762L94.540,25.762L89.450,14.240ZZ" style="fill: rgb(2, 232, 202); fill-opacity: 1;"/></g></g><g id="shape-50cacb97-4075-8010-8002-e0f90dc3b3db"><g class="fills" id="fills-50cacb97-4075-8010-8002-e0f90dc3b3db"><path rx="0" ry="0" d="M98.424,14.240L98.424,16.737L104.249,16.737L104.249,25.762L106.746,25.762L106.746,16.737L112.571,16.737L112.571,14.240L98.424,14.240ZZ" style="fill: rgb(2, 232, 202); fill-opacity: 1;"/></g></g><g id="shape-50cacb97-4075-8010-8002-e0f90dc3ce5a"><g class="fills" id="fills-50cacb97-4075-8010-8002-e0f90dc3ce5a"><path rx="0" ry="0" d="M116.455,14.240L113.958,14.240L113.958,25.762L124.823,25.762L124.823,23.265L116.455,23.265L116.455,14.240ZZ" style="fill: rgb(2, 232, 202); fill-opacity: 1;"/></g></g><g id="shape-50cacb97-4075-8010-8002-e0f90dc47d90"><g class="fills" id="fills-50cacb97-4075-8010-8002-e0f90dc47d90"><path rx="0" ry="0" d="M138.000,16.737L138.000,14.240L126.210,14.240L126.210,25.762L138.000,25.762L138.000,23.265L128.707,23.265L128.707,21.083L136.763,21.083L136.763,18.586L128.707,18.586L128.707,16.737L138.000,16.737ZZ" style="fill: rgb(2, 232, 202); fill-opacity: 1;"/></g></g><g id="shape-50cacb97-4075-8010-8002-e0f90dc52f0c"><g class="fills" id="fills-50cacb97-4075-8010-8002-e0f90dc52f0c"><path rx="0" ry="0" d="M7.517,14.545L1.979,11.726C1.546,12.577,1.177,13.469,0.883,14.378L6.797,16.290C6.990,15.692,7.232,15.106,7.517,14.545ZL7.517,14.545ZZ" style="fill: rgb(2, 232, 202); fill-opacity: 1;"/></g></g><g id="shape-50cacb97-4075-8010-8002-e0f90dc59471"><g class="fills" id="fills-50cacb97-4075-8010-8002-e0f90dc59471"><path rx="0" ry="0" d="M12.222,9.576L15.289,14.861C15.737,14.601,16.217,14.402,16.716,14.267L15.128,8.366C15.532,8.257,15.943,8.167,16.355,8.102L15.380,1.964C14.436,2.114,13.499,2.340,12.592,2.635L14.489,8.449C13.886,8.646,13.299,8.891,12.733,9.180L9.944,3.737C9.096,4.172,8.276,4.677,7.505,5.240L11.169,10.260C11.507,10.014,11.860,9.786,12.222,9.576ZL12.222,9.576ZZ" style="fill: rgb(2, 232, 202); fill-opacity: 1;"/></g></g><g id="shape-50cacb97-4075-8010-8002-e0f90dc655e7"><g class="fills" id="fills-50cacb97-4075-8010-8002-e0f90dc655e7"><path rx="0" ry="0" d="M28.683,13.955L23.399,17.025C23.660,17.473,23.859,17.953,23.994,18.451L29.895,16.860C30.004,17.264,30.094,17.674,30.159,18.087L36.297,17.109C36.147,16.166,35.920,15.228,35.624,14.322L29.811,16.222C29.613,15.619,29.369,15.032,29.079,14.466L34.520,11.674C34.085,10.827,33.579,10.007,33.016,9.236L27.998,12.903C28.244,13.240,28.472,13.592,28.683,13.955ZL28.683,13.955ZZ" style="fill: rgb(2, 232, 202); fill-opacity: 1;"/></g></g><g id="shape-50cacb97-4075-8010-8002-e0f90dc6c1c0"><g class="fills" id="fills-50cacb97-4075-8010-8002-e0f90dc6c1c0"><path rx="0" ry="0" d="M26.528,3.713C25.676,3.280,24.784,2.911,23.876,2.618L21.967,8.533C22.564,8.726,23.151,8.968,23.712,9.253L26.528,3.713ZL26.528,3.713ZZ" style="fill: rgb(2, 232, 202); fill-opacity: 1;"/></g></g><g id="shape-50cacb97-4075-8010-8002-e0f90dc73db3"><g class="fills" id="fills-50cacb97-4075-8010-8002-e0f90dc73db3"><path rx="0" ry="0" d="M24.322,9.467L21.219,14.852C21.668,15.111,22.082,15.428,22.451,15.795L31.153,7.064C30.478,6.391,29.745,5.766,28.974,5.207L25.384,10.157C25.042,9.909,24.688,9.678,24.322,9.467ZL24.322,9.467ZZ" style="fill: rgb(2, 232, 202); fill-opacity: 1;"/></g></g><g id="shape-50cacb97-4075-8010-8002-e0f90dc79305"><g class="fills" id="fills-50cacb97-4075-8010-8002-e0f90dc79305"><path rx="0" ry="0" d="M7.733,13.935L13.116,17.041C13.375,16.592,13.693,16.178,14.061,15.809L5.333,7.104C4.660,7.779,4.035,8.511,3.475,9.282L8.423,12.873C8.175,13.215,7.944,13.569,7.733,13.935ZZ" style="fill: rgb(2, 232, 202); fill-opacity: 1;"/></g></g><g id="shape-50cacb97-4075-8010-8002-e0f90dc872f1"><g class="fills" id="fills-50cacb97-4075-8010-8002-e0f90dc872f1"><path rx="0" ry="0" d="M20.146,7.998L21.085,1.956C20.157,1.811,19.208,1.738,18.262,1.738L18.248,1.738L18.248,14.066L18.262,14.066C18.782,14.066,19.296,14.133,19.791,14.264L21.385,8.257C20.977,8.149,20.564,8.063,20.146,7.998ZZ" style="fill: rgb(2, 232, 202); fill-opacity: 1;"/></g></g><g id="shape-50cacb97-4075-8010-8002-e0f90dc8d581"><g class="fills" id="fills-50cacb97-4075-8010-8002-e0f90dc8d581"><path rx="0" ry="0" d="M12.526,18.468L6.520,16.870C6.411,17.278,6.325,17.691,6.260,18.109L0.219,17.167C0.074,18.098,0.000,19.051,0.000,20.000L12.328,20.000C12.328,19.479,12.395,18.964,12.526,18.468ZL12.526,18.468ZZ" style="fill: rgb(2, 232, 202); fill-opacity: 1;"/></g></g><g id="shape-50cacb97-4075-8010-8002-e0f90dc92fba"><g class="fills" id="fills-50cacb97-4075-8010-8002-e0f90dc92fba"><path rx="0" ry="0" d="M29.007,25.456L34.546,28.276C34.979,27.424,35.348,26.532,35.641,25.623L29.728,23.711C29.534,24.309,29.292,24.895,29.007,25.456ZL29.007,25.456ZZ" style="fill: rgb(2, 232, 202); fill-opacity: 1;"/></g></g><g id="shape-50cacb97-4075-8010-8002-e0f90dc9f8ca"><g class="fills" id="fills-50cacb97-4075-8010-8002-e0f90dc9f8ca"><path rx="0" ry="0" d="M24.303,30.424L21.235,25.139C20.787,25.399,20.308,25.598,19.809,25.732L21.396,31.634C20.992,31.743,20.582,31.832,20.169,31.898L21.144,38.036C22.088,37.886,23.025,37.660,23.931,37.364L22.034,31.550C22.638,31.353,23.225,31.109,23.791,30.819L26.580,36.262C27.428,35.827,28.248,35.322,29.018,34.760L25.354,29.740C25.017,29.986,24.664,30.214,24.303,30.424ZZ" style="fill: rgb(2, 232, 202); fill-opacity: 1;"/></g></g><g id="shape-50cacb97-4075-8010-8002-e0f90dca7663"><g class="fills" id="fills-50cacb97-4075-8010-8002-e0f90dca7663"><path rx="0" ry="0" d="M7.842,26.046L13.126,22.976C12.866,22.529,12.666,22.049,12.531,21.551L6.630,23.141C6.521,22.737,6.432,22.327,6.366,21.915L0.228,22.892C0.378,23.835,0.605,24.773,0.901,25.680L6.714,23.779C6.912,24.383,7.156,24.970,7.446,25.536L2.005,28.328C2.440,29.175,2.946,29.995,3.508,30.765L8.527,27.099C8.281,26.761,8.053,26.409,7.842,26.046ZL7.842,26.046ZZ" style="fill: rgb(2, 232, 202); fill-opacity: 1;"/></g></g><g id="shape-50cacb97-4075-8010-8002-e0f90dcaeea2"><g class="fills" id="fills-50cacb97-4075-8010-8002-e0f90dcaeea2"><path rx="0" ry="0" d="M9.996,36.288C10.848,36.721,11.741,37.089,12.649,37.383L14.558,31.468C13.960,31.275,13.373,31.033,12.812,30.748L9.996,36.288ZL9.996,36.288ZZ" style="fill: rgb(2, 232, 202); fill-opacity: 1;"/></g></g><g id="shape-50cacb97-4075-8010-8002-e0f90dcb5c92"><g class="fills" id="fills-50cacb97-4075-8010-8002-e0f90dcb5c92"><path rx="0" ry="0" d="M12.203,30.534L15.306,25.149C14.856,24.890,14.442,24.573,14.073,24.206L5.371,32.938C6.046,33.610,6.780,34.235,7.551,34.794L11.140,29.845C11.482,30.092,11.836,30.323,12.203,30.534ZL12.203,30.534ZZ" style="fill: rgb(2, 232, 202); fill-opacity: 1;"/></g></g><g id="shape-50cacb97-4075-8010-8002-e0f90dcbf9d7"><g class="fills" id="fills-50cacb97-4075-8010-8002-e0f90dcbf9d7"><path rx="0" ry="0" d="M28.791,26.066L23.408,22.960C23.149,23.409,22.831,23.824,22.463,24.192L31.191,32.898C31.864,32.223,32.489,31.490,33.049,30.720L28.101,27.128C28.349,26.787,28.580,26.433,28.791,26.066ZL28.791,26.066ZZ" style="fill: rgb(2, 232, 202); fill-opacity: 1;"/></g></g><g id="shape-50cacb97-4075-8010-8002-e0f90dcc50fb"><g class="fills" id="fills-50cacb97-4075-8010-8002-e0f90dcc50fb"><path rx="0" ry="0" d="M16.734,25.736L15.140,31.743C15.547,31.852,15.961,31.937,16.378,32.002L15.440,38.045C16.368,38.189,17.317,38.262,18.263,38.262L18.277,38.262L18.277,25.934L18.263,25.934C17.743,25.934,17.229,25.868,16.734,25.736ZL16.734,25.736ZZ" style="fill: rgb(2, 232, 202); fill-opacity: 1;"/></g></g><g id="shape-50cacb97-4075-8010-8002-e0f90dccfb62"><g class="fills" id="fills-50cacb97-4075-8010-8002-e0f90dccfb62"><path rx="0" ry="0" d="M24.197,20.001C24.197,20.522,24.130,21.037,23.998,21.532L30.004,23.130C30.113,22.723,30.199,22.309,30.264,21.892L36.306,22.834C36.451,21.903,36.525,20.950,36.525,20.001L24.197,20.001ZL24.197,20.001ZZ" style="fill: rgb(2, 232, 202); fill-opacity: 1;"/></g></g></g></svg>