<svg xmlns:xlink="http://www.w3.org/1999/xlink" width="36.525" xmlns="http://www.w3.org/2000/svg" height="36.524" id="screenshot-50cacb97-4075-8010-8002-e0fde318182f" viewBox="0 0 36.525 36.524" style="-webkit-print-color-adjust: exact;" fill="none" version="1.1"><g id="shape-50cacb97-4075-8010-8002-e0fde318182f" rx="0" ry="0"><g id="shape-50cacb97-4075-8010-8002-e0fde3181830"><g class="fills" id="fills-50cacb97-4075-8010-8002-e0fde3181830"><path rx="0" ry="0" d="M7.517,12.807L1.979,9.987C1.546,10.838,1.177,11.731,0.883,12.640L6.797,14.552C6.990,13.954,7.232,13.367,7.517,12.807ZL7.517,12.807ZZ" style="fill: rgb(2, 232, 202); fill-opacity: 1;"/></g></g><g id="shape-50cacb97-4075-8010-8002-e0fde3181831"><g class="fills" id="fills-50cacb97-4075-8010-8002-e0fde3181831"><path rx="0" ry="0" d="M12.222,7.837L15.289,13.123C15.737,12.863,16.217,12.663,16.716,12.529L15.128,6.628C15.532,6.519,15.943,6.429,16.355,6.364L15.380,0.226C14.436,0.375,13.499,0.601,12.592,0.897L14.489,6.711C13.886,6.908,13.299,7.152,12.733,7.442L9.944,1.999C9.096,2.434,8.276,2.939,7.505,3.501L11.169,8.521C11.507,8.275,11.860,8.047,12.222,7.837ZL12.222,7.837ZZ" style="fill: rgb(2, 232, 202); fill-opacity: 1;"/></g></g><g id="shape-50cacb97-4075-8010-8002-e0fde3181832"><g class="fills" id="fills-50cacb97-4075-8010-8002-e0fde3181832"><path rx="0" ry="0" d="M28.683,12.217L23.399,15.287C23.660,15.735,23.859,16.214,23.994,16.712L29.895,15.122C30.004,15.526,30.094,15.936,30.159,16.349L36.297,15.371C36.147,14.428,35.920,13.490,35.624,12.583L29.811,14.484C29.613,13.881,29.369,13.293,29.079,12.728L34.520,9.936C34.085,9.089,33.579,8.268,33.016,7.498L27.998,11.164C28.244,11.502,28.472,11.854,28.683,12.217ZL28.683,12.217ZZ" style="fill: rgb(2, 232, 202); fill-opacity: 1;"/></g></g><g id="shape-50cacb97-4075-8010-8002-e0fde3181833"><g class="fills" id="fills-50cacb97-4075-8010-8002-e0fde3181833"><path rx="0" ry="0" d="M26.528,1.974C25.676,1.541,24.784,1.173,23.876,0.880L21.967,6.795C22.564,6.987,23.151,7.230,23.712,7.514L26.528,1.974ZL26.528,1.974ZZ" style="fill: rgb(2, 232, 202); fill-opacity: 1;"/></g></g><g id="shape-50cacb97-4075-8010-8002-e0fde3181834"><g class="fills" id="fills-50cacb97-4075-8010-8002-e0fde3181834"><path rx="0" ry="0" d="M24.322,7.729L21.219,13.114C21.668,13.373,22.082,13.690,22.451,14.057L31.153,5.325C30.478,4.653,29.745,4.028,28.974,3.469L25.384,8.419C25.042,8.171,24.688,7.940,24.322,7.729ZL24.322,7.729ZZ" style="fill: rgb(2, 232, 202); fill-opacity: 1;"/></g></g><g id="shape-50cacb97-4075-8010-8002-e0fde3181835"><g class="fills" id="fills-50cacb97-4075-8010-8002-e0fde3181835"><path rx="0" ry="0" d="M7.733,12.197L13.116,15.303C13.375,14.854,13.693,14.440,14.061,14.071L5.333,5.365C4.660,6.040,4.035,6.773,3.475,7.544L8.423,11.135C8.175,11.477,7.944,11.831,7.733,12.197ZZ" style="fill: rgb(2, 232, 202); fill-opacity: 1;"/></g></g><g id="shape-50cacb97-4075-8010-8002-e0fde3181836"><g class="fills" id="fills-50cacb97-4075-8010-8002-e0fde3181836"><path rx="0" ry="0" d="M20.146,6.260L21.085,0.217C20.157,0.073,19.208,0.000,18.262,0.000L18.248,0.000L18.248,12.328L18.262,12.328C18.782,12.328,19.296,12.394,19.791,12.526L21.385,6.518C20.977,6.410,20.564,6.325,20.146,6.260ZZ" style="fill: rgb(2, 232, 202); fill-opacity: 1;"/></g></g><g id="shape-50cacb97-4075-8010-8002-e0fde3181837"><g class="fills" id="fills-50cacb97-4075-8010-8002-e0fde3181837"><path rx="0" ry="0" d="M12.526,16.730L6.520,15.132C6.411,15.540,6.325,15.953,6.260,16.370L0.219,15.429C0.074,16.360,0.000,17.313,0.000,18.261L12.328,18.261C12.328,17.741,12.395,17.225,12.526,16.730ZL12.526,16.730ZZ" style="fill: rgb(2, 232, 202); fill-opacity: 1;"/></g></g><g id="shape-50cacb97-4075-8010-8002-e0fde3181838"><g class="fills" id="fills-50cacb97-4075-8010-8002-e0fde3181838"><path rx="0" ry="0" d="M29.007,23.718L34.546,26.537C34.979,25.686,35.348,24.794,35.641,23.885L29.728,21.973C29.534,22.570,29.292,23.157,29.007,23.718ZL29.007,23.718ZZ" style="fill: rgb(2, 232, 202); fill-opacity: 1;"/></g></g><g id="shape-50cacb97-4075-8010-8002-e0fde3181839"><g class="fills" id="fills-50cacb97-4075-8010-8002-e0fde3181839"><path rx="0" ry="0" d="M24.303,28.686L21.235,23.400C20.787,23.660,20.308,23.860,19.809,23.994L21.396,29.896C20.992,30.004,20.582,30.094,20.169,30.159L21.144,36.297C22.088,36.147,23.025,35.921,23.931,35.626L22.034,29.812C22.638,29.615,23.225,29.371,23.791,29.081L26.580,34.524C27.428,34.089,28.248,33.584,29.018,33.022L25.354,28.002C25.017,28.248,24.664,28.475,24.303,28.686ZZ" style="fill: rgb(2, 232, 202); fill-opacity: 1;"/></g></g><g id="shape-50cacb97-4075-8010-8002-e0fde318183a"><g class="fills" id="fills-50cacb97-4075-8010-8002-e0fde318183a"><path rx="0" ry="0" d="M7.842,24.308L13.126,21.238C12.866,20.790,12.666,20.310,12.531,19.813L6.630,21.403C6.521,20.999,6.432,20.589,6.366,20.176L0.228,21.154C0.378,22.097,0.605,23.035,0.901,23.942L6.714,22.041C6.912,22.644,7.156,23.232,7.446,23.797L2.005,26.589C2.440,27.436,2.946,28.257,3.508,29.027L8.527,25.361C8.281,25.023,8.053,24.671,7.842,24.308ZL7.842,24.308ZZ" style="fill: rgb(2, 232, 202); fill-opacity: 1;"/></g></g><g id="shape-50cacb97-4075-8010-8002-e0fde318183b"><g class="fills" id="fills-50cacb97-4075-8010-8002-e0fde318183b"><path rx="0" ry="0" d="M9.996,34.550C10.848,34.983,11.741,35.351,12.649,35.644L14.558,29.730C13.960,29.537,13.373,29.295,12.812,29.010L9.996,34.550ZL9.996,34.550ZZ" style="fill: rgb(2, 232, 202); fill-opacity: 1;"/></g></g><g id="shape-50cacb97-4075-8010-8002-e0fde318183c"><g class="fills" id="fills-50cacb97-4075-8010-8002-e0fde318183c"><path rx="0" ry="0" d="M12.203,28.796L15.306,23.411C14.856,23.152,14.442,22.835,14.073,22.468L5.371,31.199C6.046,31.872,6.780,32.497,7.551,33.056L11.140,28.106C11.482,28.354,11.836,28.585,12.203,28.796ZL12.203,28.796ZZ" style="fill: rgb(2, 232, 202); fill-opacity: 1;"/></g></g><g id="shape-50cacb97-4075-8010-8002-e0fde318183d"><g class="fills" id="fills-50cacb97-4075-8010-8002-e0fde318183d"><path rx="0" ry="0" d="M28.791,24.328L23.408,21.222C23.149,21.671,22.831,22.085,22.463,22.454L31.191,31.160C31.864,30.485,32.489,29.752,33.049,28.982L28.101,25.390C28.349,25.048,28.580,24.694,28.791,24.328ZL28.791,24.328ZZ" style="fill: rgb(2, 232, 202); fill-opacity: 1;"/></g></g><g id="shape-50cacb97-4075-8010-8002-e0fde318183e"><g class="fills" id="fills-50cacb97-4075-8010-8002-e0fde318183e"><path rx="0" ry="0" d="M16.734,23.998L15.140,30.005C15.547,30.113,15.961,30.199,16.378,30.264L15.440,36.306C16.368,36.451,17.317,36.524,18.263,36.524L18.277,36.524L18.277,24.196L18.263,24.196C17.743,24.196,17.229,24.129,16.734,23.998ZL16.734,23.998ZZ" style="fill: rgb(2, 232, 202); fill-opacity: 1;"/></g></g><g id="shape-50cacb97-4075-8010-8002-e0fde318183f"><g class="fills" id="fills-50cacb97-4075-8010-8002-e0fde318183f"><path rx="0" ry="0" d="M24.197,18.263C24.197,18.783,24.130,19.298,23.998,19.794L30.004,21.392C30.113,20.984,30.199,20.571,30.264,20.154L36.306,21.096C36.451,20.165,36.525,19.211,36.525,18.263L24.197,18.263ZL24.197,18.263ZZ" style="fill: rgb(2, 232, 202); fill-opacity: 1;"/></g></g></g></svg>